<svg xmlns="http://www.w3.org/2000/svg" fill="none" viewBox="-0.5 -0.5 14 14" height="14" width="14"><g id="high-speed-train-front"><path id="Vector 993" fill="#d7e0ff" d="M6.5 0.6964285714285714c-4.642857142857143 0 -5.3745714285714286 3.824785714285714 -5.107142857142858 5.571428571428571 0.28785714285714287 1.875714285714286 1.9676428571428575 5.571428571428571 5.107142857142858 5.571428571428571 3.1404285714285716 0 4.819285714285715 -3.6957142857142857 5.107142857142858 -5.571428571428571 0.26835714285714285 -1.7466428571428572 -0.4642857142857143 -5.571428571428571 -5.107142857142858 -5.571428571428571Z" stroke-width="1"></path><path id="Vector 996" stroke="#4147d5" stroke-linecap="round" stroke-linejoin="round" d="M6.5 0.6964285714285714c-4.642857142857143 0 -5.3745714285714286 3.824785714285714 -5.107142857142858 5.571428571428571 0.28785714285714287 1.875714285714286 1.9676428571428575 5.571428571428571 5.107142857142858 5.571428571428571 3.1404285714285716 0 4.819285714285715 -3.6957142857142857 5.107142857142858 -5.571428571428571 0.26835714285714285 -1.7466428571428572 -0.4642857142857143 -5.571428571428571 -5.107142857142858 -5.571428571428571Z" stroke-width="1"></path><path id="Vector 997" fill="#ffffff" d="M6.5 3.017857142857143c-1.8487857142857145 0 -2.653857142857143 1.0650714285714287 -2.7857142857142856 1.870142857142857 -0.04642857142857143 0.2822857142857143 0.15135714285714286 0.5255714285714286 0.42621428571428577 0.6054285714285714 0.5079285714285715 0.14857142857142858 1.3529285714285715 0.31014285714285716 2.3585714285714285 0.31014285714285716 1.0075 0 1.8525000000000003 -0.16157142857142856 2.3604285714285713 -0.3092142857142857 0.27485714285714286 -0.08078571428571428 0.4735714285714286 -0.32407142857142857 0.42714285714285716 -0.6063571428571429C9.152928571428571 4.082928571428572 8.347857142857144 3.017857142857143 6.5 3.017857142857143Z" stroke-width="1"></path><path id="Vector 998" stroke="#4147d5" stroke-linecap="round" stroke-linejoin="round" d="M6.5 3.017857142857143c-1.8487857142857145 0 -2.653857142857143 1.0650714285714287 -2.7857142857142856 1.870142857142857 -0.04642857142857143 0.2822857142857143 0.15135714285714286 0.5255714285714286 0.42621428571428577 0.6054285714285714 0.5079285714285715 0.14857142857142858 1.3529285714285715 0.31014285714285716 2.3585714285714285 0.31014285714285716 1.0075 0 1.8525000000000003 -0.16157142857142856 2.3604285714285713 -0.3092142857142857 0.27485714285714286 -0.08078571428571428 0.4735714285714286 -0.32407142857142857 0.42714285714285716 -0.6063571428571429C9.152928571428571 4.082928571428572 8.347857142857144 3.017857142857143 6.5 3.017857142857143Z" stroke-width="1"></path><path id="Intersect" stroke="#4147d5" stroke-linecap="round" stroke-linejoin="round" d="M9.537357142857143 10.453857142857142C9.165928571428573 9.432428571428572 8.296785714285715 8.357142857142858 6.500928571428572 8.357142857142858c-1.7977142857142858 0 -2.666857142857143 1.0752857142857142 -3.0382857142857143 2.096714285714286 0.7883571428571429 0.8106428571428572 1.7995714285714286 1.3854285714285715 3.037357142857143 1.3854285714285715 1.2387142857142859 0 2.249 -0.5747857142857143 3.037357142857143 -1.3854285714285715Z" stroke-width="1"></path><path id="Vector 961" stroke="#4147d5" stroke-linecap="round" stroke-linejoin="round" d="m11.376857142857144 10.910714285714286 0.9285714285714286 1.4485714285714286" stroke-width="1"></path><path id="Vector 995" stroke="#4147d5" stroke-linecap="round" stroke-linejoin="round" d="M1.6240714285714288 10.910714285714286 0.6945714285714286 12.359285714285715" stroke-width="1"></path></g></svg>