<svg xmlns="http://www.w3.org/2000/svg" fill="none" viewBox="-0.5 -0.5 14 14" height="14" width="14"><g id="screen-curve--screen-curved-device-electronics-monitor-diplay-computer"><path id="Intersect" fill="#d7e0ff" d="M1.022357142857143 8.069285714285714c0.07057142857142858 0.4735714285714286 0.48100000000000004 0.8264285714285715 0.9582857142857143 0.8115714285714286C3.4450000000000003 8.837214285714285 4.937214285714286 8.78057142857143 6.5 8.78057142857143c1.5572142857142859 0 3.0494285714285714 0.03528571428571429 4.5045 0.09007142857142858 0.4837857142857143 0.018571428571428572 0.9035 -0.33614285714285713 0.9750000000000001 -0.8152857142857143 0.14950000000000002 -1.0010000000000001 0.32407142857142857 -2.042857142857143 0.32407142857142857 -3.1144285714285718 0 -1.0678571428571428 -0.1727142857142857 -2.107857142857143 -0.3222142857142857 -3.105142857142857a0.9610714285714286 0.9610714285714286 0 0 0 -0.9870714285714286 -0.8171428571428572c-1.4392857142857143 0.06035714285714286 -2.9445 0.08171428571428571 -4.494285714285715 0.08171428571428571 -1.5562857142857143 0 -3.0615 -0.04271428571428571 -4.509142857142857 -0.09285714285714286A0.9517857142857142 0.9517857142857142 0 0 0 1.0214285714285716 1.82C0.871 2.823785714285714 0.6964285714285714 3.8675 0.6964285714285714 4.940928571428572c0 1.0762142857142858 0.17642857142857143 2.123642857142857 0.3259285714285714 3.1292857142857144Z" stroke-width="1"></path><path id="Intersect_2" stroke="#4147d5" stroke-linecap="round" stroke-linejoin="round" d="M1.022357142857143 8.069285714285714c0.07057142857142858 0.4735714285714286 0.48100000000000004 0.8264285714285715 0.9582857142857143 0.8115714285714286C3.4450000000000003 8.837214285714285 4.937214285714286 8.78057142857143 6.5 8.78057142857143c1.5572142857142859 0 3.0494285714285714 0.03528571428571429 4.5045 0.09007142857142858 0.4837857142857143 0.018571428571428572 0.9035 -0.33614285714285713 0.9750000000000001 -0.8152857142857143 0.14950000000000002 -1.0010000000000001 0.32407142857142857 -2.042857142857143 0.32407142857142857 -3.1144285714285718 0 -1.0678571428571428 -0.1727142857142857 -2.107857142857143 -0.3222142857142857 -3.105142857142857a0.9610714285714286 0.9610714285714286 0 0 0 -0.9870714285714286 -0.8171428571428572c-1.4392857142857143 0.06035714285714286 -2.9445 0.08171428571428571 -4.494285714285715 0.08171428571428571 -1.5562857142857143 0 -3.0615 -0.04271428571428571 -4.509142857142857 -0.09285714285714286A0.9517857142857142 0.9517857142857142 0 0 0 1.0214285714285716 1.82C0.871 2.823785714285714 0.6964285714285714 3.8675 0.6964285714285714 4.940928571428572c0 1.0762142857142858 0.17642857142857143 2.123642857142857 0.3259285714285714 3.1292857142857144Z" stroke-width="1"></path><path id="Vector 8" stroke="#4147d5" stroke-linecap="round" stroke-linejoin="round" d="M4.186 11.619214285714285h4.628" stroke-width="1"></path><path id="Vector 9" stroke="#4147d5" stroke-linecap="round" stroke-linejoin="round" d="m6.5 8.783357142857144 0 2.835857142857143" stroke-width="1"></path></g></svg>