<svg xmlns="http://www.w3.org/2000/svg" fill="none" viewBox="-0.5 -0.5 14 14" height="14" width="14"><g id="job-searching--job-searching-human-resources"><path id="Vector" fill="#d7e0ff" d="M1.8812857142857142 9.569857142857142c1.9035714285714285 2.2341428571428574 6.382071428571429 2.2341428571428574 8.284714285714287 0 1.7531428571428571 -2.0586428571428574 1.620357142857143 -6.087714285714286 -0.4893571428571429 -7.850142857142858 -1.8905714285714286 -1.5785714285714285 -5.4154285714285715 -1.5785714285714285 -7.305071428571429 0C0.26185714285714284 3.482142857142857 0.12814285714285717 7.511214285714287 1.8812857142857142 9.569857142857142Z" stroke-width="1"></path><path id="Vector_2" stroke="#4147d5" stroke-linecap="round" stroke-linejoin="round" d="m9.8085 9.940357142857144 2.5229285714285714 2.523857142857143" stroke-width="1"></path><path id="Intersect" fill="#ffffff" d="M3.166428571428572 7.62357142857143c0.08078571428571428 0.6667142857142857 0.6314285714285715 1.1913571428571428 1.3 1.2535714285714288 0.507 0.04642857142857143 1.0260714285714285 0.08821428571428572 1.5562857142857143 0.08821428571428572s1.0502142857142858 -0.040857142857142856 1.5562857142857143 -0.08821428571428572a1.4476428571428572 1.4476428571428572 0 0 0 1.3 -1.2535714285714288c0.04364285714285714 -0.35842857142857143 0.07707142857142858 -0.7252142857142858 0.07707142857142858 -1.0975714285714286 0 -0.37328571428571433 -0.033428571428571426 -0.7400714285714286 -0.07614285714285715 -1.0985a1.4476428571428572 1.4476428571428572 0 0 0 -1.3 -1.2535714285714288 16.758857142857142 16.758857142857142 0 0 0 -1.5572142857142859 -0.08728571428571429c-0.5292857142857142 0 -1.0492857142857142 0.039928571428571424 -1.5562857142857143 0.08728571428571429a1.4476428571428572 1.4476428571428572 0 0 0 -1.3 1.2535714285714288 9.185428571428572 9.185428571428572 0 0 0 -0.07614285714285715 1.0985c0 0.3723571428571429 0.033428571428571426 0.7391428571428572 0.07614285714285715 1.0975714285714286Z" stroke-width="1"></path><path id="Intersect_2" stroke="#4147d5" stroke-linecap="round" stroke-linejoin="round" d="M3.166428571428572 7.62357142857143c0.08078571428571428 0.6667142857142857 0.6314285714285715 1.1913571428571428 1.3 1.2535714285714288 0.507 0.04642857142857143 1.0260714285714285 0.08821428571428572 1.5562857142857143 0.08821428571428572s1.0502142857142858 -0.040857142857142856 1.5562857142857143 -0.08821428571428572a1.4476428571428572 1.4476428571428572 0 0 0 1.3 -1.2535714285714288c0.04364285714285714 -0.35842857142857143 0.07707142857142858 -0.7252142857142858 0.07707142857142858 -1.0975714285714286 0 -0.37328571428571433 -0.033428571428571426 -0.7400714285714286 -0.07614285714285715 -1.0985a1.4476428571428572 1.4476428571428572 0 0 0 -1.3 -1.2535714285714288 16.758857142857142 16.758857142857142 0 0 0 -1.5572142857142859 -0.08728571428571429c-0.5292857142857142 0 -1.0492857142857142 0.039928571428571424 -1.5562857142857143 0.08728571428571429a1.4476428571428572 1.4476428571428572 0 0 0 -1.3 1.2535714285714288 9.185428571428572 9.185428571428572 0 0 0 -0.07614285714285715 1.0985c0 0.3723571428571429 0.033428571428571426 0.7391428571428572 0.07614285714285715 1.0975714285714286Z" stroke-width="1"></path><path id="Vector 194" stroke="#4147d5" stroke-linecap="round" stroke-linejoin="round" d="M4.800714285714286 4.148857142857143v-0.44942857142857146c0 -0.6741428571428572 0.5478571428571428 -1.2220000000000002 1.2229285714285714 -1.2220000000000002v0c0.6750714285714285 0 1.2220000000000002 0.5478571428571428 1.2220000000000002 1.2220000000000002v0.44942857142857146" stroke-width="1"></path><path id="Vector_3" stroke="#4147d5" stroke-linecap="round" stroke-linejoin="round" d="M1.8812857142857142 9.569857142857142c1.9035714285714285 2.2341428571428574 6.382071428571429 2.2341428571428574 8.284714285714287 0 1.7531428571428571 -2.0586428571428574 1.620357142857143 -6.087714285714286 -0.4893571428571429 -7.850142857142858 -1.8905714285714286 -1.5785714285714285 -5.4154285714285715 -1.5785714285714285 -7.305071428571429 0C0.26185714285714284 3.482142857142857 0.12814285714285717 7.511214285714287 1.8812857142857142 9.569857142857142Z" stroke-width="1"></path></g></svg>